<svg xmlns="http://www.w3.org/2000/svg" data-name="Layer 1" viewBox="0 0 5 5" x="0px" y="0px"><title>bdsm_shibari_suspension</title><path d="M1.039,4.05728c.01251-.02666.02508-.05326.03827-.07955a.26383.26383,0,0,0,.094.09358c.00442.00358.00889-.003.01425-.00284-.0081.022-.01488.04422-.02313.06614a.14109.14109,0,0,0-.03323.00836.14187.14187,0,0,1-.05415.01.07743.07743,0,0,0-.04769.00689l-.00315.00478c.00173.04564.06777.05289.11409.03444-.01062.02876-.02114.05757-.03123.08659-.03417.09826-.0776.23843-.00678.33106.00994.013.02892.00063.02671-.01346a.4672.4672,0,0,1-.00515-.15489.926.926,0,0,1,.04364-.15462l.00741-.01972a.43236.43236,0,0,0,.0847.11067.83072.83072,0,0,0,.089.06509c-.01546.00983-.02613.02492-.042.0347-.0091.00563-.0052.02114.00641.01856.02308-.005.041-.024.0643-.03223.00831.005.01488.01272.02345.01714l.00452.00189a.4626.4626,0,0,0,.00237.07729.32433.32433,0,0,0,.02387.057l-.01567.006a.866.866,0,0,1-.26072.01052c-.011-.0011-.0174.01619-.00689.02135a.44848.44848,0,0,0,.30525.01472c.00584.00852.00447.02129.01183.02823.017.016.05531.00452.04606-.02319l-.00026-.00068a.264.264,0,0,0,.02823.03291.029.029,0,0,0,.04306-.03864c-.00731-.00867-.00957-.02008-.01614-.02913.00883-.00347.01893-.00373.0276-.00747a1.83447,1.83447,0,0,0,.40241-.26556l.03859-.0306c.01109.00678.01956.018.03086.02418A.03027.03027,0,0,0,2.09632,4.316L2.0806,4.3048l.028-.02219c.00941.004.01724.01167.02687.01519.03759.01383.0459-.039.02035-.05258l.26172-.20751a1.2639,1.2639,0,0,0,.17623-.15709,1.75285,1.75285,0,0,0,.12991-.19837A.86945.86945,0,0,1,2.7952,3.5809a1.12659,1.12659,0,0,1,.083-.0786c.01672-.0154.03381-.03191.05026-.04889l.00016.00163c.00184.03654.05909.04.05725.0031l-.00042-.00478a.34908.34908,0,0,0,.10862.01714,1.27569,1.27569,0,0,0,.14916-.0439A.0101.0101,0,0,0,3.251,3.41471c-.01325-.05079.013-.10662.00789-.159-.002-.0204-.02-.03212-.02939-.04937.01551-.00226.02913-.01561.02114-.03144A.64956.64956,0,0,0,3.156,3.05809q-.052-.06065-.10389-.12166-.05-.05883-.10047-.11729c-.01025-.01183-.02077-.02319-.03149-.03423l.00205-.00347a1.32845,1.32845,0,0,1,.10841.12339.59167.59167,0,0,0,.15142.13428.41964.41964,0,0,0,.18848.05536c.0183.00163.0214-.02634.00442-.03123a.706.706,0,0,1-.16277-.07566A.538.538,0,0,1,3.07905,2.87a1.09764,1.09764,0,0,0-.11524-.12865l-.0132-.00752c.00741-.01451.01877-.02692.024-.04027a.50631.50631,0,0,0,.0296-.12234l.00442.00352q.041.03383.08433.06467c.05757.0409.11577.08091.173.12234a1.1103,1.1103,0,0,1,.13843.11125.42367.42367,0,0,1,.0919.14211.0219.0219,0,0,0,.04122-.00852c-.00662-.12418-.12229-.20778-.2144-.27518l-.006-.00431a.18952.18952,0,0,0,.081-.02781c.02613-.00368.05137-.01094.0796-.01435l.011-.001a.07134.07134,0,0,0-.00783.03854c.00152.02087.0132.04532.03617.04758a.00883.00883,0,0,0,.007-.01456c-.01809-.01724-.00489-.05005.00668-.07087a.4523.4523,0,0,1,.09579.021.39851.39851,0,0,1,.21356.13149l.01356.02319a.11327.11327,0,0,1-.01593.04695c-.01441.01982-.03827.02019-.05909.02892a.06076.06076,0,0,0-.03228.0256c-.005.01015-.00121.04947-.01257.05152l-.00074.004c.01015.00846.019.00105.02387-.00931.00436-.00946.005-.0184.00988-.02666a.05.05,0,0,0,.01519.01835.07478.07478,0,0,0,.01593.006l.01782.00657.00231-.00489a.03493.03493,0,0,1-.01236-.01078L3.8018,2.98375l-.00836-.02114.02024-.00631a.09552.09552,0,0,0,.05573-.05137.42313.42313,0,0,1-.01241.19332c-.02534.09921-.06882.19253-.09059.29295a.99947.99947,0,0,0-.01924.32575c.00168.014.02771-.22134.05662-.33.02208-.08307.05789-.16135.0868-.242-.01467.1102-.03628.34552-.0326.33348.026-.08559.048-.17213.06924-.259a1.0604,1.0604,0,0,0,.0286-.16824.93031.93031,0,0,1,.00426.10273.78678.78678,0,0,1-.02108.20651.00483.00483,0,0,0,.0092.00294.96959.96959,0,0,0,.05189-.2073.78388.78388,0,0,0-.01178-.21635,1.18474,1.18474,0,0,0-.05068-.191.31968.31968,0,0,0-.04217-.0816.28622.28622,0,0,0-.06519-.05825l-.00379-.00126a.6006.6006,0,0,0-.06677-.0399.0039.0039,0,0,0-.00421.00657.28315.28315,0,0,1,.06845.08911.48258.48258,0,0,1,.04337.09952l.00867.03044a.434.434,0,0,0-.19984-.1276.40913.40913,0,0,0-.1674-.0307.28169.28169,0,0,0-.04358.00683.24523.24523,0,0,1,.07035-.05915.27319.27319,0,0,1,.14716-.01588A.00931.00931,0,0,0,3.686,2.5488a.25465.25465,0,0,0-.22618.04027,1.02172,1.02172,0,0,1-.09343.07755A.19452.19452,0,0,1,3.264,2.689c-.04075-.02876-.08207-.05673-.12434-.08312a.9757.9757,0,0,0-.09737-.054c-.02171-.01036-.04385-.02014-.06609-.02965.00084-.0112.00289-.02245.00273-.03349a.01007.01007,0,0,0-.01956-.00358l-.00957.02518L2.9299,2.50143c-.00447-.00252-.00883.004-.00436.00683.00694.00431.01262.01046.01919.01535-.01409.03622-.02755.07287-.04153.109l-.003.00768q.00694-.0291.01151-.05878A.7126.7126,0,0,0,2.919,2.48513c.00032-.01788.005-.04732-.01483-.05636a.01143.01143,0,0,0-.01309.00468l-.00195.00531-.00694.01893-.00037-.00131A.31939.31939,0,0,0,2.777,2.41994c-.13959-.42013-.27938-.84031-.42391-1.25891q-.0306-.08872-.06393-.17649L2.27881.957,2.2869.95373A.03.03,0,0,0,2.27523.89742.12752.12752,0,0,0,2.2551.89663L2.254.89384l.00925.00068a.09943.09943,0,0,0,.03176-.01A.03439.03439,0,0,0,2.30909.8399.034.034,0,0,0,2.2878.78407L2.27539.78212,2.28848.777c.01609-.01.024-.03854.00268-.04911L2.27791.7225A.03682.03682,0,0,0,2.27949.71015L2.28906.7112C2.3247.712,2.33932.65447,2.30094.64669A.53007.53007,0,0,0,2.244.63812C2.24332.58943,2.24211.5408,2.23953.49217A.919.919,0,0,0,2.2174.2814.0058.0058,0,0,0,2.20631.28082.9016.9016,0,0,0,2.184.48917c-.00268.04995-.00389.09995-.00452.15A.156.156,0,0,0,2.119.65978.01835.01835,0,0,0,2.1113.67071c-.02518.00242-.0418.00967-.03622.02566.00778.02224.04532.02718.06519.03081l.00915.00158A.09708.09708,0,0,0,2.09811.7572a.01862.01862,0,0,0,.01125.032c.01015.00063.02024.00047.03028.00026A.14382.14382,0,0,0,2.09732.8114c-.01293.00994-.00315.029.01083.03065A.16382.16382,0,0,0,2.13034.8429a.17062.17062,0,0,0-.04884.02545c-.01346.01041-.00326.03013.0112.03181a.1519.1519,0,0,0,.024.00079L2.11325.91172A.262.262,0,0,0,2.082.9175.017.017,0,0,0,2.08018.95l.01887.00662-.00063.002-.066.2124q-.06688.21514-.133.43048-.13123.42538-.26025.85135c-.02476.08165-.04984.16325-.07424.245l-.0348.11751c-.0091.03065-.01756.06172-.02492.093C1.5,2.90368,1.50164,2.89606,1.4956,2.8918c-.02224-.01572-.04343.01488-.02913.03423.0858.11635.01593.26156.06346.38806.02313.06157.06046.11556.08559.17607.01251.03.02934.0664.00011.09153-.021.018-.04527.02876-.05862.054a.01539.01539,0,0,0,.01966.02187.27678.27678,0,0,0,.0847-.04169.09737.09737,0,0,0,.02345-.09248.29979.29979,0,0,0-.04343-.09053l.02224.004a.28321.28321,0,0,0,.04858.0103.08707.08707,0,0,0,.08612-.03707.14876.14876,0,0,0,.00852-.09558.26837.26837,0,0,1,.01183-.1214c.00221-.00594-.00531-.00973-.00973-.00631-.0581.04553-.03875.11256-.04511.17581-.00715.07092-.09774.01236-.14637.02886a.4211.4211,0,0,1-.032-.07066.28127.28127,0,0,1-.01236-.07192l.0071-.00841q.02137-.02374.04358-.04674c.028-.029.05783-.05652.08843-.08281a.80778.80778,0,0,0,.0877-.07734A.20007.20007,0,0,0,1.8427,2.94c.00252-.01414-.02092-.0183-.02466-.00457-.01078.03954-.04774.05789-.07771.08239-.03112.02545-.06183.05152-.09117.079a.52923.52923,0,0,0-.07639.08622.42371.42371,0,0,0-.04238-.23128l.00463-.0021a1.62287,1.62287,0,0,0,.07339-.21535c.02292-.07045.04506-.14116.06756-.21177L1.7212,2.38l.00047.00095a.103.103,0,0,0,.03586.0428.018.018,0,0,0,.02729-.014A.08473.08473,0,0,0,1.76147,2.354a.147.147,0,0,0-.02513-.02171l.00915-.02871a.14426.14426,0,0,0,.03081.0234c.01561.00752.03791-.01167.02208-.026a.19128.19128,0,0,1-.02255-.02266c-.01073-.01356-.00494-.02061.00079-.03643l.01267-.038a.16991.16991,0,0,1,.01157-.03838c.00379-.006-.003-.00841-.00857-.00957l.01987-.06256q.13367-.4242.26608-.84888L2.154,1.00015l.01041-.034.00205.00005c-.00626.05662-.00789.114-.01083.17076-.00515.09984-.0082.19984-.01136.29978q-.00938.29708-.01782.59426c-.00158.05552-.00331.111-.00478.16661-.00074.02639-.00252.05357-.00336.08081a.0141.0141,0,0,0-.02324.00526.1797.1797,0,0,0,.00068.05284l-.042.00452-.00032.00631.04264.00978a.27782.27782,0,0,1,.00079.061.20308.20308,0,0,1-.01809.05978.68882.68882,0,0,0-.18438.07108.23168.23168,0,0,1-.04637.02613c-.02592.00789-.03391-.00689-.04532-.0276a.3688.3688,0,0,0-.06645-.09311.00434.00434,0,0,0-.00726.004.34423.34423,0,0,0,.03312.09311.10712.10712,0,0,0,.05321.062c.05394.01956.11135-.02676.15362-.05415a.46.46,0,0,1,.05994-.02965l-.00053.00047a.02518.02518,0,0,0-.00237.04322A.04932.04932,0,0,0,2.09337,2.568c-.01.01872.01409.04132.03312.03139.01525-.008.01519-.02855.02539-.04185.02808.00894.05662.0163.084.028.0582.025.11651.04932.1755.0724a1.85624,1.85624,0,0,0,.1766.06078c.03107.00867.06251.01609.09421.022l.01.00189a.52445.52445,0,0,0-.15241.1787,1.68321,1.68321,0,0,0-.10993.24884,1.11955,1.11955,0,0,1-.05047.12749.13238.13238,0,0,1-.13386.05294.8976.8976,0,0,0-.31-.023.25337.25337,0,0,0-.17749.2165.0059.0059,0,0,0,.01078.00347.55323.55323,0,0,1,.07776-.11267.22621.22621,0,0,1,.12208-.05909,2.378,2.378,0,0,1,.306.00715A.18907.18907,0,0,0,2.388,3.347a.27352.27352,0,0,0,.07255-.10363c.03538-.07991.06362-.16282.10142-.24174a1.01192,1.01192,0,0,1,.16724-.24779l.00347-.00662a.08709.08709,0,0,0,.03107-.00584.01248.01248,0,0,0,.00121-.0215.22627.22627,0,0,0-.08233-.0235c-.03055-.00673-.06078-.015-.09064-.02429-.06109-.019-.12082-.04164-.18065-.06409a1.53988,1.53988,0,0,0-.17523-.05668c-.02361-.00578-.04821-.0081-.07219-.01362a.17978.17978,0,0,0,.01682-.02765.73568.73568,0,0,1,.1919.061c.06146.027.12166.057.18506.07928a1.7406,1.7406,0,0,0,.1837.04527c.02387.00552.04416.0205.06766.02829a.08975.08975,0,0,0-.00662.01851.02526.02526,0,0,0,.0194.02645c.00978.038.02455.07555.0347.11267A1.63526,1.63526,0,0,1,2.89593,3.07c.01567.10368.02077.20851.02655.31314a1.30042,1.30042,0,0,0-.20835.21388,2.00776,2.00776,0,0,1-.11367.19337,1.09253,1.09253,0,0,1-.16966.15631c-.10783.087-.21687.17245-.32554.25835a1.30117,1.30117,0,0,1-.258-.18491c-.04064-.03833-.082-.07623-.12161-.11556l.00342-.00342a.75566.75566,0,0,0,.066-.10084L1.79522,3.8a.206.206,0,0,0,.022.04916c.00452.00736.01767.00647.01777-.00368a.43852.43852,0,0,1,.06845-.26766.31969.31969,0,0,1,.1082-.08712A.78973.78973,0,0,1,2.14784,3.443a.00608.00608,0,0,0,.00063-.01162.22959.22959,0,0,0-.15736.00846.32919.32919,0,0,0-.2052.30257l-.0193.0286c-.02255.0316-.0459.06251-.07035.09264L1.69407,3.866a1.14636,1.14636,0,0,1-.07634-.09595l-.00631.00226.00994-.02166A1.11064,1.11064,0,0,1,1.74065,3.601c.00578-.00683-.004-.01519-.01094-.01214a.3504.3504,0,0,0-.14474.14358.48979.48979,0,0,0-.03176.06293l-.00631-.12466c-.00079-.01519-.02413-.02271-.02844-.00526a.70141.70141,0,0,0-.01109.13528l-.00084-.00095c-.02645-.02981-.0541-.05867-.08333-.0858a.62613.62613,0,0,0-.07077-.045c.004-.052.00515-.10431.01136-.15615a1.289,1.289,0,0,1,.03349-.17061c.01646-.06414.03575-.12749.052-.19164a.55806.55806,0,0,0,.02623-.182c-.00079-.009-.01393-.0102-.01824-.00336a.52162.52162,0,0,0-.0572.16377c-.01372.05936-.02445.11935-.038.17876-.0153.06714-.03123.13323-.044.2-.0265.02944-.05089.06036-.07481.0918-.00589-.00263-.01015-.00778-.01614-.01025a.01246.01246,0,0,0-.01483.0173c.00352.00557.01036.0081.01472.01293l-.00815.01L1.2016,3.657l-.005-.00347a.01252.01252,0,0,0-.01356.021l.00484.0041a1.12848,1.12848,0,0,0-.06945.10915c-.01335.02545-.02355.05221-.03549.07823-.0062-.00279-.01-.0112-.01646-.0122s-.01078.006-.01.01157c.00131.00878.01146.01525.016.02376l-.00783.01724c-.00294-.00442-.00873-.00673-.0112-.01146a.00486.00486,0,0,0-.00915.00189c0,.00962.0092.01887.01167.02865l-.01136.02508c-.01094.02918-.02129.05862-.0307.08833a.17683.17683,0,0,0-.01577.07934l.00494.00163A.17807.17807,0,0,0,1.039,4.05728ZM2.97947,2.55137l-.00657.01136.00126-.01556Zm-.795-.32807c.00195-.05.0031-.1.00463-.14994L2.198,1.77342c.00589-.1981.01141-.39621.01509-.59436.00131-.06992.00447-.1419.00021-.21272L2.22444.966c.0174.05815.03848.11551.05668.17155.03523.10841.07266.21619.10972.324.07392.21493.14753.43.2225.64452.03423.098.06961.19553.10452.29332l-.018-.00626c-.07171-.01441-.144-.02634-.21635-.03654-.07166-.01015-.1439-.01845-.21614-.02271l-.038-.00142c-.00063-.00568.004-.01083.00284-.01651a.00956.00956,0,0,0-.01882.00142l-.00258.01441L2.18964,2.331a.166.166,0,0,0-.00747-.02482C2.18349,2.27846,2.18338,2.25049,2.18443,2.22331Zm.63274.43474c-.05725-.0194-.11793-.02729-.17655-.04148a1.04521,1.04521,0,0,1-.18543-.06882.80375.80375,0,0,0-.25341-.07134l.00336-.00347a.25416.25416,0,0,0,.01625-.09427l.03244.00415c.07019.00915.14038.01788.21041.02818.09663.01414.19053.03717.2848.05951a.0186.0186,0,0,0,.02655.00552c.02918.0072.05915.0103.08822.01845.00473.00131.00641-.00331.0102-.00457l-.00247.01083c-.00631.02818-.01183.05662-.01861.0847a.80131.80131,0,0,1-.0224.0786l-.00047.00131Zm.1347.40556a1.43628,1.43628,0,0,0-.04127-.18817c-.006-.02045-.01246-.04232-.02014-.06388l.02471.03291q.04819.06041.097.1204t.09721.12019c.021.02618.04506.05289.06824.07986a.014.014,0,0,0,.00032.01851.15575.15575,0,0,1,.034.103.48443.48443,0,0,0,.01493.11693.488.488,0,0,0-.13128.00994.74726.74726,0,0,1-.11419-.00652l-.00179-.02061a.22712.22712,0,0,0,.02871-.05636.01271.01271,0,0,0-.02271-.01067l-.01083.01094C2.96927,3.24105,2.96565,3.15178,2.95187,3.06361ZM1.325,3.79593c.014.01262.02949.02361.04306.0368.02808.02734.05484.056.0806.08549.01782.02045.03465.04206.05173.06335.00242.05683.00589.11382.00415.17008a.40481.40481,0,0,1-.04369.20362c-.00683.01094-.02.014-.02813.02329-.07471-.06456-.15662-.12113-.22823-.18922.02487-.06493.05016-.1296.07318-.19521A1.55278,1.55278,0,0,0,1.325,3.79593Zm.23559.144L1.55979,3.924c.01272-.004.023-.01251.01851-.028l-.00263-.00752c.0112.02114.031.03628.04406.05626-.0184.01861-.03607.03806-.05394.0571.00289-.00641.00957-.01136.0051-.0194l-.00852-.01073Zm-.27155.40782c-.03738-.02907-.07255-.061-.11035-.08943l.01788-.04769a1.02089,1.02089,0,0,0,.19426.20257l-.00137.00116A1.04129,1.04129,0,0,1,1.28908,4.34771Zm.16062.12092a.247.247,0,0,0,.00773.09984c-.00247-.00889-.00773-.01593-.00952-.02555-.004-.02182-.00563-.044-.00915-.06588a.029.029,0,0,0,.00484-.01467Zm.20241.07045a.93512.93512,0,0,1-.12161.04653.25466.25466,0,0,1-.01908-.03438.658.658,0,0,1-.013-.06714l-.00163-.01225a.028.028,0,0,0,.00053-.03827c-.005-.006-.01236-.00936-.01767-.015.00478-.00468.01341-.00368.01767-.00889A.36314.36314,0,0,0,1.564,4.20491a1.37377,1.37377,0,0,0,.00242-.14116.46187.46187,0,0,0,.08217-.08212A1.20892,1.20892,0,0,0,1.7702,4.137a1.69831,1.69831,0,0,0,.20946.16409A2.39543,2.39543,0,0,1,1.65211,4.53908Zm.14937-.4778a1.2653,1.2653,0,0,0,.2481.188l-.01535.01214L2.027,4.26669c-.02545-.01751-.05121-.03459-.07571-.05373a1.79639,1.79639,0,0,1-.1388-.12024c-.04679-.045-.09059-.09269-.1348-.14011l.00825-.00825C1.72225,3.98531,1.76215,4.02353,1.80148,4.06128ZM1.60458,3.7872a.20777.20777,0,0,0,.05084.11977l-.01073.01136q-.03328-.03549-.06751-.07014l.00142-.00447A.49372.49372,0,0,1,1.60458,3.7872Zm-.14795.05095.03722.044.00631.00641L1.4998,3.893l-.00957-.012a1.139,1.139,0,0,0-.08727-.0858c-.02024-.018-.04527-.02928-.06677-.04579.00147-.00941.00536-.01824.00662-.02771.01193.01088.02471.02077.03617.03207C1.40627,3.78053,1.43172,3.80907,1.45664,3.83815ZM1.312,3.54178q-.008.04621-.01278.09343c-.00988-.00563-.01851-.01309-.02871-.01824C1.28446,3.592,1.29728,3.56634,1.312,3.54178Zm-.05662.10263c.01193.00894.02161.02.03312.029l.003.00268c-.00163.01267-.00563.02461-.00768.03722-.0163-.01083-.03123-.02345-.04826-.03307Zm-.0919.16645c.01887-.03475.03864-.06908.05741-.104.01861.01509.03633.03128.05463.04669a1.76557,1.76557,0,0,1-.0623.2359.38019.38019,0,0,0-.05284-.06593c-.01041-.011-.02692-.01761-.0399-.0296C1.13472,3.86617,1.1486,3.83825,1.16343,3.81086ZM1.101,3.93157c.00794.00894.01241.02056.019.02818l.01272.01614a.38436.38436,0,0,1-.03575-.03654Z"></path><path d="M1.79385,3.1593a.13532.13532,0,0,0,.07166-.15836.00932.00932,0,0,0-.01609-.00084c-.02755.04485-.04621.09658-.06935.1439C1.77572,3.15289,1.7836,3.1645,1.79385,3.1593Z"></path><path d="M3.61858,2.98938a.048.048,0,0,0-.00447.04485.03968.03968,0,0,0,.01951.02019.03883.03883,0,0,0,.01451.00484c.00662.00037.00983-.00326.01519-.00557a.01555.01555,0,0,0,.01819-.01.048.048,0,0,0-.01309-.04374c-.01025-.01346-.02445-.02224-.03575-.03449a.004.004,0,0,0-.00662.00447c.00457.013.00578.03165.01.04821a.01908.01908,0,0,1-.01136-.02587Z"></path><path d="M3.74144,2.91136c.01.00757.0225-.00547.01756-.01577-.00652-.01372-.01094-.02844-.01756-.04211-.00794-.01635-.02355-.02886-.03055-.04521L3.70575,2.81a.14309.14309,0,0,1,.00231.03044.12457.12457,0,0,0,.006.0307A.077.077,0,0,0,3.74144,2.91136Z"></path><circle cx="3.74869" cy="2.57346" r="0.00424" transform="translate(0.71732 5.96258) rotate(-82.65877)"></circle><path d="M3.5863,3.06088a.204.204,0,0,1-.03286-.00447l-.01535-.00326c-.005-.00089-.01078.00016-.015-.00284a.005.005,0,0,0-.00636.00747c.0052.00552.00636.01283.01236.01809a.05089.05089,0,0,0,.01919.01036.06387.06387,0,0,0,.04285-.00237C3.60275,3.07954,3.5977,3.0613,3.5863,3.06088Z"></path><path d="M3.66921,3.49326c.00368.02082.03728.07392.03654.06078a.80023.80023,0,0,1,.02808-.26235c.02087-.07129.06356-.15378.0326-.22865-.002-.00484-.00815-.003-.00988.00074-.01709.0368-.01872.07986-.03444.11787a.85354.85354,0,0,0-.04621.12266.47032.47032,0,0,0-.0102.05547C3.66,3.34131,3.654,3.3227,3.649,3.3033a.51224.51224,0,0,1-.011-.09937.17574.17574,0,0,0-.01635-.0877l-.00331.00026a.19108.19108,0,0,0-.015.0909.39259.39259,0,0,0,.00326.09521c.01193.064.04832.12113.05946.18506Z"></path><path d="M3.62147,3.671c-.01172-.06277-.03049-.12371-.03954-.18706a1.03619,1.03619,0,0,1-.017-.19752A.00379.00379,0,0,0,3.55733,3.286c-.00489.03454-.01335.06782-.01556.10284a.59879.59879,0,0,0,.00231.09758A.53929.53929,0,0,0,3.62147,3.671Z"></path><path d="M1.80626,2.35327c.01719.03454.02524.0868.07413.0847.02087-.00089.03817-.01777.05547-.02776A.434.434,0,0,0,2.002,2.37157c.01409-.01178-.00173-.03349-.01772-.02608-.0214.00994-.08654.07387-.10284.05857l-.00931-.02a.12634.12634,0,0,0-.0143-.019.09287.09287,0,0,0-.04075-.02439A.00909.00909,0,0,0,1.80626,2.35327Z"></path><path d="M1.87987,2.12967c-.00042-.00946-.01483-.01745-.02014-.00647-.01809.03743-.08039.07913-.03917.1204.03307.03312.07739.05116.11146.08349.01583.015.04579-.00142.03375-.023a.13453.13453,0,0,0-.05236-.04748.17862.17862,0,0,1-.05652-.03906.19254.19254,0,0,0,.01877-.03575A.16719.16719,0,0,0,1.87987,2.12967Z"></path><path d="M1.78155,2.47525a.08775.08775,0,0,0,.06861.02718.49252.49252,0,0,0,.08748-.02986.00406.00406,0,0,0-.00063-.008.219.219,0,0,0-.06656-.00042.09273.09273,0,0,1-.04127-.00089c-.01115-.00326-.02092-.009-.03233-.01167A.01472.01472,0,0,0,1.78155,2.47525Z"></path><path d="M2.53175,3.21308a1.71369,1.71369,0,0,1,.21409-.31734c.00841-.01157-.00978-.02755-.01951-.01656a1.78185,1.78185,0,0,0-.1981.27765c-.02792.04748-.04732.09958-.0765.14621a.29252.29252,0,0,1-.124.09868.00675.00675,0,0,0,.00095.0123A.10862.10862,0,0,0,2.451,3.36729.59841.59841,0,0,0,2.53175,3.21308Z"></path><path d="M2.3747,3.52265a.07837.07837,0,0,0,.03459.01094c.011-.00047.02019-.01377.011-.023a.10078.10078,0,0,0-.0797-.01483c-.00694.00095-.00594.01009-.00068.01236Z"></path></svg>
