<svg xmlns="http://www.w3.org/2000/svg" viewBox="0 0 100 100"><path d="M82.322 29.618a.803.803 0 0 1 .566 1.368.791.791 0 0 1-.563.233.818.818 0 0 1-.26-.042l-.374-.126-.126-.374a.798.798 0 0 1 .757-1.059m-43.77 59.019l.354.175a.801.801 0 1 1-1.155.717c0-.305.171-.58.447-.717l.354-.175m43.77-60.269a2.049 2.049 0 0 0-1.942 2.707L65.494 45.962H46.056l-8.414 8.414v33.317a2.05 2.05 0 1 0 1.818 0V55.129l7.348-7.348h19.437l15.42-15.42a2.06 2.06 0 0 0 2.107-.491 2.051 2.051 0 0 0-1.45-3.502z"/><path d="M61.778 14.362a.801.801 0 0 1 .354 1.518l-.354.175-.354-.175a.797.797 0 0 1-.447-.717c0-.441.36-.801.801-.801M32.906 75.869l.354.175a.801.801 0 1 1-1.155.717c0-.305.171-.58.447-.717l.354-.175m28.872-62.757A2.051 2.051 0 0 0 60.869 17v16.186l-5.823 5.615H42.987l-10.99 10.99v25.133a2.05 2.05 0 0 0 .909 3.888 2.05 2.05 0 1 0 .909-3.888v-24.38l9.925-9.925h12.04l6.908-6.661V17a2.05 2.05 0 0 0-.91-3.888zM11.851 34.222a.795.795 0 0 1 .756 1.057l-.126.374-.374.126a.818.818 0 0 1-.26.042.796.796 0 0 1-.563-1.365.799.799 0 0 1 .567-.234m15.258 51.991l.354.175a.801.801 0 1 1-1.155.717c0-.305.171-.58.447-.717l.354-.175M11.851 32.971a2.051 2.051 0 1 0 .656 3.993l7.101 7.101v12.276l6.593 6.593v22.334a2.05 2.05 0 0 0 .909 3.888 2.051 2.051 0 0 0 .909-3.888V62.181l-6.593-6.593V43.312l-7.634-7.634a2.049 2.049 0 0 0-1.941-2.707zM74.423 19.9a.803.803 0 0 1 .566 1.368.791.791 0 0 1-.563.233.818.818 0 0 1-.26-.042l-.374-.126-.126-.374a.798.798 0 0 1 .757-1.059M62.998 39.507c.089 0 .176.014.26.042l.374.126.126.374a.799.799 0 0 1-1.322.823.796.796 0 0 1 0-1.132.783.783 0 0 1 .562-.233m11.425-20.858a2.049 2.049 0 0 0-1.942 2.707l-3.655 3.655v8.184l-5.169 5.168a2.06 2.06 0 0 0-.659-.108 2.051 2.051 0 1 0 1.946 1.394l5.701-5.701v-8.184l3.123-3.122c.213.072.436.108.659.108a2.051 2.051 0 0 0-.004-4.101zM88.149 36.869a.801.801 0 0 1 .354 1.518l-.354.175-.354-.175a.797.797 0 0 1-.447-.717c0-.442.36-.801.801-.801m-6.736 14.914c.089 0 .176.014.26.042l.374.126.126.374a.799.799 0 0 1-1.322.823.803.803 0 0 1 0-1.133.783.783 0 0 1 .562-.232m6.736-16.165a2.051 2.051 0 0 0-.909 3.888v5.966l-5.169 5.168a2.06 2.06 0 0 0-.659-.108 2.051 2.051 0 1 0 1.946 1.394l5.701-5.701v-6.719a2.05 2.05 0 0 0-.91-3.888z"/><path d="M22.676 18.454a.801.801 0 0 1 .354 1.518l-.354.175-.354-.175a.797.797 0 0 1-.447-.717c0-.441.36-.801.801-.801m4.092 34.681l.354.175a.801.801 0 1 1-1.155.717c0-.305.171-.58.447-.717l.354-.175m-4.092-35.931a2.051 2.051 0 0 0-.909 3.888v8.765l4.092 4.092V52.19a2.05 2.05 0 0 0 .909 3.888 2.051 2.051 0 0 0 .909-3.888V33.196l-4.092-4.092v-8.012a2.05 2.05 0 0 0-.909-3.888zM14.492 24.592a.801.801 0 0 1 .354 1.518l-.354.175-.354-.175a.797.797 0 0 1-.447-.717c0-.441.36-.801.801-.801m4.691 8.777c.213 0 .413.083.563.233a.803.803 0 0 1-.566 1.368.792.792 0 0 1-.566-.235.795.795 0 0 1-.19-.823l.126-.374.374-.126a.782.782 0 0 1 .259-.043m-4.691-10.027a2.051 2.051 0 0 0-.909 3.888v2.627l3.655 3.655a2.049 2.049 0 0 0 1.942 2.707 2.051 2.051 0 1 0-.655-3.993l-3.122-3.122V27.23a2.05 2.05 0 0 0-.911-3.888zM30.86 14.362a.801.801 0 0 1 .354 1.518l-.354.175-.354-.175a.797.797 0 0 1-.447-.717c0-.441.36-.801.801-.801m20.455 16.363a.801.801 0 0 1 0 1.602.797.797 0 0 1-.717-.447l-.175-.353.175-.354a.8.8 0 0 1 .717-.448M30.86 13.112A2.051 2.051 0 0 0 29.951 17v4.673l10.763 10.763h8.765a2.05 2.05 0 1 0 0-1.818h-8.012l-9.697-9.697V17a2.05 2.05 0 0 0-.91-3.888z"/><path d="M45.778 9.669c.214 0 .415.083.566.235a.796.796 0 0 1 .235.566.795.795 0 0 1-.797.799.818.818 0 0 1-.26-.042l-.374-.126-.126-.374a.798.798 0 0 1 .756-1.058m7.583 12.872a.801.801 0 0 1 0 1.602.797.797 0 0 1-.717-.447l-.175-.353.175-.354a.797.797 0 0 1 .717-.448M45.778 8.419a2.049 2.049 0 0 0-1.942 2.707l-6.078 6.078 7.047 7.047h6.719a2.05 2.05 0 1 0 0-1.818h-5.965l-5.229-5.229 4.792-4.792a2.06 2.06 0 0 0 2.107-.491 2.051 2.051 0 0 0-1.451-3.502z"/><path d="M56.008 9.669a.803.803 0 0 1 .566 1.368.791.791 0 0 1-.563.233.818.818 0 0 1-.26-.042l-.374-.126-.126-.374a.799.799 0 0 1 .757-1.059m-5.286 5.285c.089 0 .176.014.26.042l.374.126.126.374a.799.799 0 0 1-1.322.823.796.796 0 0 1 0-1.132.787.787 0 0 1 .562-.233m5.286-6.535a2.049 2.049 0 0 0-1.942 2.707l-2.686 2.686a2.06 2.06 0 0 0-.659-.108 2.051 2.051 0 1 0 1.946 1.394l2.686-2.686c.213.072.436.108.659.108a2.051 2.051 0 0 0-.004-4.101zM32.311 30.13a.795.795 0 0 1 .756 1.057l-.126.374-.374.126a.818.818 0 0 1-.26.042.791.791 0 0 1-.563-.233.803.803 0 0 1 0-1.133.802.802 0 0 1 .567-.233m-.003 9.377c.089 0 .176.014.26.042l.374.126.126.374a.798.798 0 0 1-1.322.823.803.803 0 0 1 0-1.133.786.786 0 0 1 .562-.232m.003-10.628a2.051 2.051 0 1 0 .655 3.993l1.077 1.076v3.339l-1.076 1.076a2.06 2.06 0 0 0-.659-.108 2.051 2.051 0 1 0 1.946 1.394l1.609-1.609v-4.845l-1.609-1.609a2.049 2.049 0 0 0-1.943-2.707zM80.561 42.406a.803.803 0 0 1 .566 1.368.791.791 0 0 1-.563.233.818.818 0 0 1-.26-.042l-.374-.126-.126-.374a.798.798 0 0 1 .757-1.059M51.326 53.231c.305 0 .58.171.717.447l.175.354-.175.353a.801.801 0 1 1-.717-1.154m29.235-12.075a2.049 2.049 0 0 0-1.942 2.707l-9.261 9.261H53.163a2.05 2.05 0 0 0-3.888.909 2.051 2.051 0 0 0 3.888.909h16.949l9.793-9.793a2.06 2.06 0 0 0 2.107-.491 2.051 2.051 0 0 0-1.451-3.502zM11.851 44.452a.795.795 0 0 1 .756 1.057l-.126.374-.374.126a.818.818 0 0 1-.26.042.791.791 0 0 1-.563-.233.803.803 0 0 1 0-1.133.802.802 0 0 1 .567-.233m2.641 8.683l.354.175a.801.801 0 1 1-1.155.717c0-.305.171-.58.447-.717l.354-.175m-2.641-9.933a2.051 2.051 0 1 0 .655 3.993l1.077 1.076v3.919a2.05 2.05 0 0 0 .909 3.888 2.05 2.05 0 1 0 .909-3.888v-4.673l-1.609-1.609a2.049 2.049 0 0 0-1.941-2.706z"/></svg>
